<mxfile host="app.diagrams.net" agent="Mozilla/5.0 (Windows NT 10.0; Win64; x64) AppleWebKit/537.36 (KHTML, like Gecko) Chrome/128.0.0.0 YaBrowser/24.10.0.0 Safari/537.36" version="25.0.3">
  <diagram name="Страница — 1" id="FZuVYSKQKKseB5JXQPXO">
    <mxGraphModel dx="1290" dy="567" grid="1" gridSize="10" guides="1" tooltips="1" connect="1" arrows="1" fold="1" page="1" pageScale="1" pageWidth="827" pageHeight="1169" math="0" shadow="0">
      <root>
        <mxCell id="0" />
        <mxCell id="1" parent="0" />
        <mxCell id="aIFWk4Jm3tVMZY_rUiKk-1" value="" style="edgeStyle=orthogonalEdgeStyle;rounded=0;orthogonalLoop=1;jettySize=auto;html=1;" edge="1" parent="1" target="aIFWk4Jm3tVMZY_rUiKk-3">
          <mxGeometry relative="1" as="geometry">
            <mxPoint x="425" y="80" as="sourcePoint" />
          </mxGeometry>
        </mxCell>
        <mxCell id="aIFWk4Jm3tVMZY_rUiKk-2" value="" style="edgeStyle=orthogonalEdgeStyle;rounded=0;orthogonalLoop=1;jettySize=auto;html=1;" edge="1" parent="1" source="aIFWk4Jm3tVMZY_rUiKk-3" target="aIFWk4Jm3tVMZY_rUiKk-4">
          <mxGeometry relative="1" as="geometry" />
        </mxCell>
        <mxCell id="aIFWk4Jm3tVMZY_rUiKk-3" value="Ввод: список техник-уязвимостей-объектов" style="shape=parallelogram;perimeter=parallelogramPerimeter;whiteSpace=wrap;html=1;fixedSize=1;" vertex="1" parent="1">
          <mxGeometry x="340" y="120" width="170" height="60" as="geometry" />
        </mxCell>
        <mxCell id="aIFWk4Jm3tVMZY_rUiKk-4" value="Поиск нужного датасет нарушителей" style="rounded=0;whiteSpace=wrap;html=1;" vertex="1" parent="1">
          <mxGeometry x="297.5" y="220" width="255" height="60" as="geometry" />
        </mxCell>
        <mxCell id="aIFWk4Jm3tVMZY_rUiKk-5" style="edgeStyle=orthogonalEdgeStyle;rounded=0;orthogonalLoop=1;jettySize=auto;html=1;exitX=0.5;exitY=1;exitDx=0;exitDy=0;entryX=0.5;entryY=0;entryDx=0;entryDy=0;" edge="1" parent="1" source="aIFWk4Jm3tVMZY_rUiKk-4" target="aIFWk4Jm3tVMZY_rUiKk-9">
          <mxGeometry relative="1" as="geometry">
            <mxPoint x="511.5" y="360" as="sourcePoint" />
          </mxGeometry>
        </mxCell>
        <mxCell id="aIFWk4Jm3tVMZY_rUiKk-6" value="Сообщение об ошибке" style="rounded=0;whiteSpace=wrap;html=1;" vertex="1" parent="1">
          <mxGeometry x="220" y="520" width="120" height="60" as="geometry" />
        </mxCell>
        <mxCell id="aIFWk4Jm3tVMZY_rUiKk-7" style="edgeStyle=orthogonalEdgeStyle;rounded=0;orthogonalLoop=1;jettySize=auto;html=1;exitX=0.5;exitY=1;exitDx=0;exitDy=0;entryX=0;entryY=0.5;entryDx=0;entryDy=0;entryPerimeter=0;" edge="1" parent="1" source="aIFWk4Jm3tVMZY_rUiKk-6" target="aIFWk4Jm3tVMZY_rUiKk-22">
          <mxGeometry relative="1" as="geometry">
            <mxPoint x="355" y="820" as="targetPoint" />
          </mxGeometry>
        </mxCell>
        <mxCell id="aIFWk4Jm3tVMZY_rUiKk-8" value="" style="edgeStyle=orthogonalEdgeStyle;rounded=0;orthogonalLoop=1;jettySize=auto;html=1;" edge="1" parent="1" source="aIFWk4Jm3tVMZY_rUiKk-9" target="aIFWk4Jm3tVMZY_rUiKk-12">
          <mxGeometry relative="1" as="geometry" />
        </mxCell>
        <mxCell id="aIFWk4Jm3tVMZY_rUiKk-9" value="ПО получает соотношение техника-уязвимости-объект-нарушитель" style="rounded=0;whiteSpace=wrap;html=1;" vertex="1" parent="1">
          <mxGeometry x="300" y="320" width="250" height="60" as="geometry" />
        </mxCell>
        <mxCell id="aIFWk4Jm3tVMZY_rUiKk-10" style="edgeStyle=orthogonalEdgeStyle;rounded=0;orthogonalLoop=1;jettySize=auto;html=1;exitX=0;exitY=0.5;exitDx=0;exitDy=0;entryX=0.5;entryY=0;entryDx=0;entryDy=0;" edge="1" parent="1" source="aIFWk4Jm3tVMZY_rUiKk-12" target="aIFWk4Jm3tVMZY_rUiKk-6">
          <mxGeometry relative="1" as="geometry" />
        </mxCell>
        <mxCell id="aIFWk4Jm3tVMZY_rUiKk-11" style="edgeStyle=orthogonalEdgeStyle;rounded=0;orthogonalLoop=1;jettySize=auto;html=1;exitX=1;exitY=0.5;exitDx=0;exitDy=0;entryX=0.5;entryY=0;entryDx=0;entryDy=0;" edge="1" parent="1" source="aIFWk4Jm3tVMZY_rUiKk-12" target="aIFWk4Jm3tVMZY_rUiKk-14">
          <mxGeometry relative="1" as="geometry" />
        </mxCell>
        <mxCell id="aIFWk4Jm3tVMZY_rUiKk-12" value="Высокая точность результата?" style="rhombus;whiteSpace=wrap;html=1;" vertex="1" parent="1">
          <mxGeometry x="321.25" y="430" width="207.5" height="80" as="geometry" />
        </mxCell>
        <mxCell id="aIFWk4Jm3tVMZY_rUiKk-13" value="" style="edgeStyle=orthogonalEdgeStyle;rounded=0;orthogonalLoop=1;jettySize=auto;html=1;" edge="1" parent="1" source="aIFWk4Jm3tVMZY_rUiKk-14" target="aIFWk4Jm3tVMZY_rUiKk-16">
          <mxGeometry relative="1" as="geometry" />
        </mxCell>
        <mxCell id="aIFWk4Jm3tVMZY_rUiKk-14" value="Парсинг полученных данных" style="rounded=0;whiteSpace=wrap;html=1;" vertex="1" parent="1">
          <mxGeometry x="516.25" y="520" width="137.5" height="50" as="geometry" />
        </mxCell>
        <mxCell id="aIFWk4Jm3tVMZY_rUiKk-15" style="edgeStyle=orthogonalEdgeStyle;rounded=0;orthogonalLoop=1;jettySize=auto;html=1;exitX=0.5;exitY=1;exitDx=0;exitDy=0;entryX=0.5;entryY=0;entryDx=0;entryDy=0;" edge="1" parent="1" source="aIFWk4Jm3tVMZY_rUiKk-16" target="aIFWk4Jm3tVMZY_rUiKk-18">
          <mxGeometry relative="1" as="geometry" />
        </mxCell>
        <mxCell id="aIFWk4Jm3tVMZY_rUiKk-16" value="Создание документа Модель нарушителя" style="rounded=0;whiteSpace=wrap;html=1;" vertex="1" parent="1">
          <mxGeometry x="516.25" y="600" width="137.5" height="50" as="geometry" />
        </mxCell>
        <mxCell id="aIFWk4Jm3tVMZY_rUiKk-17" value="" style="edgeStyle=orthogonalEdgeStyle;rounded=0;orthogonalLoop=1;jettySize=auto;html=1;" edge="1" parent="1" source="aIFWk4Jm3tVMZY_rUiKk-18">
          <mxGeometry relative="1" as="geometry">
            <mxPoint x="420" y="800" as="targetPoint" />
          </mxGeometry>
        </mxCell>
        <mxCell id="aIFWk4Jm3tVMZY_rUiKk-18" value="Вывод: документ Модель нарушителя" style="shape=parallelogram;perimeter=parallelogramPerimeter;whiteSpace=wrap;html=1;fixedSize=1;" vertex="1" parent="1">
          <mxGeometry x="335" y="710" width="170" height="60" as="geometry" />
        </mxCell>
        <mxCell id="aIFWk4Jm3tVMZY_rUiKk-19" value="Да" style="text;html=1;align=center;verticalAlign=middle;whiteSpace=wrap;rounded=0;" vertex="1" parent="1">
          <mxGeometry x="510" y="440" width="60" height="30" as="geometry" />
        </mxCell>
        <mxCell id="aIFWk4Jm3tVMZY_rUiKk-20" value="Нет" style="text;html=1;align=center;verticalAlign=middle;whiteSpace=wrap;rounded=0;" vertex="1" parent="1">
          <mxGeometry x="280" y="440" width="60" height="30" as="geometry" />
        </mxCell>
        <mxCell id="aIFWk4Jm3tVMZY_rUiKk-21" value="Начало" style="strokeWidth=2;html=1;shape=mxgraph.flowchart.terminator;whiteSpace=wrap;" vertex="1" parent="1">
          <mxGeometry x="360" y="40" width="130" height="40" as="geometry" />
        </mxCell>
        <mxCell id="aIFWk4Jm3tVMZY_rUiKk-22" value="Конец" style="strokeWidth=2;html=1;shape=mxgraph.flowchart.terminator;whiteSpace=wrap;" vertex="1" parent="1">
          <mxGeometry x="355" y="800" width="130" height="40" as="geometry" />
        </mxCell>
      </root>
    </mxGraphModel>
  </diagram>
</mxfile>
